<svg width="100" height="100" viewBox="0 0 100 100" xmlns="http://www.w3.org/2000/svg">
  <defs>
    <linearGradient id="bg" x1="0%" y1="0%" x2="100%" y2="100%">
      <stop offset="0%" style="stop-color:#1e40af;stop-opacity:1" />
      <stop offset="100%" style="stop-color:#1d4ed8;stop-opacity:1" />
    </linearGradient>
    <filter id="shadow" x="-20%" y="-20%" width="140%" height="140%">
      <feDropShadow dx="2" dy="2" stdDeviation="2" flood-color="#000000" flood-opacity="0.3"/>
    </filter>
  </defs>
  
  <!-- Background circle -->
  <circle cx="50" cy="50" r="45" fill="url(#bg)"/>
  
  <!-- Letter T - Hammer -->
  <g filter="url(#shadow)" transform="translate(15, 25)">
    <!-- Hammer handle -->
    <rect x="8" y="15" width="4" height="25" fill="white" rx="2"/>
    <!-- Hammer head -->
    <rect x="2" y="10" width="16" height="8" fill="white" rx="2"/>
  </g>
  
  <!-- Letter I - Screw -->
  <g filter="url(#shadow)" transform="translate(35, 25)">
    <!-- Screw head -->
    <rect x="8" y="8" width="4" height="6" fill="white" rx="1"/>
    <!-- Screw body with threads -->
    <rect x="6" y="14" width="8" height="25" fill="white" rx="2"/>
    <!-- Thread lines -->
    <line x1="6" y1="18" x2="14" y2="18" stroke="white" stroke-width="1"/>
    <line x1="6" y1="22" x2="14" y2="22" stroke="white" stroke-width="1"/>
    <line x1="6" y1="26" x2="14" y2="26" stroke="white" stroke-width="1"/>
    <line x1="6" y1="30" x2="14" y2="30" stroke="white" stroke-width="1"/>
    <line x1="6" y1="34" x2="14" y2="34" stroke="white" stroke-width="1"/>
  </g>
  
  <!-- Letter X - Crossed wrenches -->
  <g filter="url(#shadow)" transform="translate(55, 25)">
    <!-- First wrench -->
    <rect x="2" y="8" width="3" height="8" fill="white" rx="1"/>
    <rect x="0" y="16" width="7" height="3" fill="white" rx="1"/>
    <rect x="2" y="19" width="3" height="20" fill="white" rx="1"/>
    
    <!-- Second wrench (crossed) -->
    <rect x="12" y="8" width="3" height="8" fill="white" rx="1"/>
    <rect x="10" y="16" width="7" height="3" fill="white" rx="1"/>
    <rect x="12" y="19" width="3" height="20" fill="white" rx="1"/>
  </g>
</svg> 